<svg xmlns="http://www.w3.org/2000/svg" version="1.1" xmlns:xlink="http://www.w3.org/1999/xlink" xmlns:svgjs="http://svgjs.dev/svgjs" width="1500" height="1976" viewBox="0 0 1500 1976"><g transform="matrix(1,0,0,1,-1.773364485981574,-2.795829787233629)"><svg viewBox="0 0 107 141" data-background-color="#ffffff" preserveAspectRatio="xMidYMid meet" height="1976" width="1500" xmlns="http://www.w3.org/2000/svg" xmlns:xlink="http://www.w3.org/1999/xlink"><g id="tight-bounds" transform="matrix(1,0,0,1,0.12650000000002137,0.19949999999997203)"><svg viewBox="0 0 106.74679131672598 140.60052000000002" height="140.60052000000002" width="106.74679131672598"><g><svg viewBox="0 0 106.74679131672598 140.60052000000002" height="140.60052000000002" width="106.74679131672598"><g><svg viewBox="0 0 106.74679131672598 140.60052000000002" height="140.60052000000002" width="106.74679131672598"><g><path d="M0 140.601v-140.601h106.747v140.601z" fill="#9226ff" stroke="transparent" stroke-width="0" rx="0%" data-fill-palette-color="tertiary"></path><path d="M3.283 137.317v-134.034h100.181v134.034z" fill="#ffffff" stroke="transparent" stroke-width="0" rx="0%" data-fill-palette-color="quaternary"></path><path d="M9.85 130.751v-120.901h87.047v120.901z" fill="#9226ff" stroke="transparent" stroke-width="0" data-fill-palette-color="tertiary"></path></g><g transform="matrix(1,0,0,1,19.69974,19.69974)" id="textblocktransform"><svg viewBox="0 0 67.34731131672598 101.20104000000002" height="101.20104000000002" width="67.34731131672598" id="textblock"><g><svg viewBox="0 0 67.34731131672598 101.20104000000002" height="101.20104000000002" width="67.34731131672598"><g transform="matrix(1,0,0,1,0,0)"><svg width="67.34731131672598" viewBox="3 -34.55 28.05 42.15" height="101.20104000000002" data-palette-color="#ffffff"><path d="M3-34.55L9.35-34.55 9.35-5.25 20.5-5.25 19.8 0 3 0 3-34.55ZM31.05-34.55L31.05-5Q31.05 0.4 28.7 3.18 26.35 5.95 22.1 7.6L22.1 7.6 20.4 3.1Q22.25 2.2 23.15 1.18 24.05 0.15 24.35-1.3 24.65-2.75 24.65-5.25L24.65-5.25 24.65-34.55 31.05-34.55Z" opacity="1" transform="matrix(1,0,0,1,0,0)" fill="#ffffff" class="wordmark-text-0" data-fill-palette-color="quaternary" id="text-0"></path></svg></g></svg></g></svg></g></svg></g><g></g></svg></g><defs></defs></svg><rect width="106.74679131672598" height="140.60052000000002" fill="none" stroke="none" visibility="hidden"></rect></g></svg></g></svg>